<svg width="50" height="51" viewBox="0 0 50 51" fill="none" xmlns="http://www.w3.org/2000/svg">
<path d="M24.5 12.5C18.4998 12.5 14.7499 15.4992 13.2497 21.4972C15.5 18.4979 18.125 17.3736 21.1249 18.1232C22.8366 18.5508 24.06 19.7927 25.4144 21.1669C27.6202 23.4053 30.1733 25.996 35.7503 25.996C41.7499 25.996 45.5004 22.9968 47 16.9983C44.7503 19.9975 42.1252 21.1224 39.1249 20.3729C37.4137 19.9452 36.1903 18.7033 34.8359 17.3292C32.63 15.0907 30.0765 12.5 24.5 12.5ZM13.2497 25.996C7.25009 25.996 3.49962 28.9953 2 34.9938C4.24972 31.9945 6.87477 30.8697 9.87514 31.6198C11.5863 32.048 12.8097 33.2893 14.1641 34.6629C16.37 36.9014 18.9235 39.4926 24.5 39.4926C30.5002 39.4926 34.2501 36.4934 35.7503 30.4949C33.5 33.4942 30.875 34.619 27.8751 33.8689C26.1634 33.4418 24.94 32.1994 23.5856 30.8258C21.3798 28.5873 18.8267 25.996 13.2497 25.996Z" fill="#06B6D4"/>
</svg>
